<svg width="130" height="130" viewBox="0 0 130 130" fill="none" xmlns="http://www.w3.org/2000/svg">
<path d="M12.086 57.05C11.924 58.01 12.429 58.64 13.089 58.75C13.844 58.88 14.187 58.3601 14.453 57.8401C14.708 57.3401 14.894 56.8399 15.305 56.9099C15.647 56.9699 15.767 57.2401 15.699 57.5701C15.632 57.9301 15.378 58.1201 15.099 58.0901L14.9411 59.01C15.7071 59.09 16.246 58.57 16.392 57.72C16.539 56.85 16.187 56.16 15.43 56.03C14.654 55.9 14.321 56.4199 14.06 56.9399C13.81 57.4399 13.6261 57.9401 13.1831 57.8701C12.8831 57.8201 12.713 57.5499 12.78 57.1499C12.846 56.7599 13.106 56.5801 13.447 56.6101L13.6 55.71C13.53 55.7 13.462 55.6899 13.396 55.6899C12.708 55.6899 12.221 56.26 12.086 57.05Z" fill="url(#paint0_linear_67_553)"/>
<path d="M11.331 65.6499C11.311 66.8599 12.197 67.8501 13.477 67.8701C14.751 67.8901 15.668 66.94 15.688 65.73C15.708 64.53 14.822 63.53 13.548 63.51C13.534 63.51 13.521 63.51 13.507 63.51C12.249 63.51 11.35 64.4699 11.331 65.6599M13.491 66.99C12.626 66.97 12.08 66.4399 12.092 65.6699C12.105 64.8899 12.668 64.3699 13.533 64.3899C14.399 64.3999 14.933 64.94 14.92 65.71C14.908 66.47 14.371 66.99 13.525 66.99C13.514 66.99 13.502 66.99 13.491 66.99Z" fill="url(#paint1_linear_67_553)"/>
<path d="M11.788 72.8799L12.111 75.1101L12.781 75.01L12.58 73.6299L16.122 73.1101L16 72.27L11.788 72.8799Z" fill="url(#paint2_linear_67_553)"/>
<path d="M13.505 81.1201L13.804 82.1101L18.328 82.3799L18.065 81.51L14.49 81.3701L17.391 79.27L17.127 78.3999L13.505 81.1201Z" fill="url(#paint3_linear_67_553)"/>
<path d="M16.099 88.1399L16.456 88.9099L20.317 87.1299L19.96 86.3601L16.099 88.1399Z" fill="url(#paint4_linear_67_553)"/>
<path d="M18.88 93.53L19.341 94.25L21.795 92.6699L20.386 95.8701L20.847 96.5901L24.428 94.28L23.967 93.5701L21.508 95.1499L22.922 91.9399L22.46 91.22L18.88 93.53Z" fill="url(#paint5_linear_67_553)"/>
<path d="M25.508 99.2C24.567 100.06 24.537 101.36 25.37 102.27C26.134 103.11 27.242 103.15 27.996 102.69L28.546 102.19L26.993 100.49L26.5109 100.93L27.497 102.01C26.965 102.32 26.402 102.26 25.959 101.78C25.425 101.19 25.46 100.43 26.099 99.8501C26.726 99.2801 27.484 99.3101 27.997 99.8701C28.301 100.2 28.4 100.59 28.265 100.98L28.927 101.7C29.372 100.93 29.219 100.04 28.578 99.3401C28.137 98.8601 27.564 98.6001 26.981 98.6001C26.469 98.6001 25.949 98.8 25.508 99.2Z" fill="url(#paint6_linear_67_553)"/>
<path d="M34.916 110.53L35.676 111.01L36.343 110.47L37.779 111.37L37.587 112.2L38.352 112.68L39.312 108.26L38.47 107.73L34.916 110.53ZM36.901 110.01L38.366 108.83L37.944 110.67L36.901 110.01Z" fill="url(#paint7_linear_67_553)"/>
<path d="M43.451 112.92C42.967 114.1 43.488 115.28 44.621 115.75C45.494 116.1 46.395 115.93 46.993 115.23L46.086 114.86C45.742 115.17 45.328 115.21 44.905 115.04C44.217 114.76 43.936 114.05 44.262 113.25C44.592 112.45 45.288 112.15 45.976 112.43C46.399 112.61 46.661 112.93 46.691 113.39L47.599 113.76C47.665 112.85 47.148 112.09 46.274 111.73C45.985 111.61 45.692 111.55 45.407 111.55C44.573 111.55 43.812 112.04 43.451 112.92Z" fill="url(#paint8_linear_67_553)"/>
<path d="M51.701 115.89C51.425 117.14 52.141 118.21 53.338 118.48C54.26 118.68 55.118 118.36 55.588 117.57L54.63 117.35C54.343 117.71 53.943 117.83 53.497 117.73C52.771 117.57 52.372 116.92 52.558 116.08C52.745 115.24 53.38 114.82 54.106 114.98C54.552 115.08 54.866 115.36 54.974 115.8L55.932 116.01C55.841 115.1 55.201 114.44 54.278 114.24C54.105 114.2 53.934 114.18 53.767 114.18C52.78 114.18 51.936 114.83 51.701 115.89Z" fill="url(#paint9_linear_67_553)"/>
<path d="M60.411 119.53L62.875 119.69L62.919 118.99L61.306 118.89L61.377 117.77L62.806 117.86L62.849 117.18L61.419 117.09L61.485 116.03L63.098 116.13L63.141 115.44L60.677 115.28L60.411 119.53Z" fill="url(#paint10_linear_67_553)"/>
<path d="M69.07 115.24C68.196 115.31 67.614 115.82 67.677 116.58C67.797 118.12 69.938 117.39 70.012 118.31C70.037 118.61 69.818 118.84 69.417 118.87C69.023 118.91 68.779 118.7 68.727 118.36L67.816 118.44C67.894 119.24 68.612 119.64 69.493 119.57C70.458 119.49 70.943 118.85 70.888 118.18C70.766 116.69 68.631 117.34 68.561 116.49C68.533 116.14 68.769 115.96 69.104 115.94C69.469 115.92 69.711 116.12 69.752 116.4L70.687 116.32C70.579 115.62 70.033 115.23 69.267 115.23C69.203 115.23 69.137 115.23 69.07 115.24Z" fill="url(#paint11_linear_67_553)"/>
<path d="M76.433 114.07C75.579 114.27 75.081 114.87 75.26 115.61C75.611 117.11 77.617 116.07 77.83 116.96C77.901 117.26 77.719 117.52 77.328 117.61C76.943 117.7 76.671 117.54 76.568 117.21L75.679 117.42C75.877 118.2 76.649 118.5 77.508 118.29C78.451 118.07 78.833 117.35 78.677 116.7C78.33 115.24 76.317 116.21 76.119 115.38C76.039 115.04 76.244 114.83 76.573 114.76C76.93 114.68 77.2 114.84 77.283 115.11L78.196 114.89C78.012 114.31 77.543 114 76.933 114C76.775 114 76.608 114.03 76.433 114.07Z" fill="url(#paint12_linear_67_553)"/>
<path d="M86.915 110.37L87.241 110.98L88.24 110.44L89.926 113.58L90.678 113.18L88.992 110.04L89.991 109.5L89.665 108.89L86.915 110.37Z" fill="url(#paint13_linear_67_553)"/>
<path d="M94.895 105.31C93.941 106.04 93.709 107.35 94.482 108.36C95.259 109.38 96.5861 109.5 97.5401 108.77C98.4981 108.04 98.72 106.73 97.944 105.72C97.498 105.13 96.872 104.84 96.237 104.84C95.772 104.84 95.302 105 94.895 105.31ZM95.179 107.83C94.654 107.14 94.746 106.39 95.361 105.92C95.971 105.45 96.7211 105.56 97.2471 106.25C97.7721 106.94 97.687 107.7 97.077 108.16C96.83 108.35 96.56 108.45 96.291 108.45C95.891 108.45 95.494 108.24 95.179 107.83Z" fill="url(#paint14_linear_67_553)"/>
<path d="M104.413 95.8401L106.783 97.6499C107.049 97.8499 107.122 98.1101 106.929 98.3601C106.733 98.6201 106.459 98.6099 106.17 98.3999L105.651 99.0801C106.333 99.6001 107.056 99.4501 107.541 98.8101C108.019 98.1901 107.972 97.48 107.305 96.97L104.936 95.1499L104.413 95.8401Z" fill="url(#paint15_linear_67_553)"/>
<path d="M108.793 88.9299L111.103 90.1899C111.617 90.4699 111.732 90.8999 111.47 91.3799C111.21 91.8599 110.79 91.99 110.277 91.71L107.966 90.45L107.557 91.2L109.863 92.45C110.847 92.99 111.696 92.58 112.143 91.76C112.59 90.94 112.494 89.9699 111.51 89.4399L109.204 88.1799L108.793 88.9299Z" fill="url(#paint16_linear_67_553)"/>
<path d="M111.466 82.6499C111.171 83.4699 111.399 84.21 112.123 84.47C112.877 84.74 113.296 84.27 113.647 83.79C113.971 83.34 114.237 82.9 114.653 83.05C114.94 83.15 115.061 83.4501 114.926 83.8301C114.794 84.2001 114.506 84.34 114.176 84.25L113.87 85.1101C114.631 85.3601 115.297 84.88 115.593 84.04C115.917 83.13 115.529 82.42 114.898 82.2C114.162 81.94 113.732 82.4099 113.376 82.8899C113.049 83.3299 112.783 83.7599 112.398 83.6299C112.071 83.5099 111.999 83.2199 112.123 82.9099C112.252 82.5599 112.533 82.43 112.804 82.5L113.119 81.6201C112.992 81.5801 112.868 81.5701 112.75 81.5701C112.174 81.5701 111.707 81.9699 111.466 82.6499Z" fill="url(#paint17_linear_67_553)"/>
<path d="M113.177 77.0601L113.854 77.1899L114.069 76.0701L117.57 76.75L117.732 75.9099L114.231 75.24L114.447 74.1201L113.771 73.99L113.177 77.0601Z" fill="url(#paint18_linear_67_553)"/>
<path d="M114.253 69.6001L118.5 69.8601L118.552 69.01L114.306 68.75L114.253 69.6001Z" fill="url(#paint19_linear_67_553)"/>
<path d="M117.05 60.95C117.478 61.12 117.707 61.4699 117.742 61.9299C117.799 62.6699 117.293 63.24 116.436 63.3C115.573 63.37 114.991 62.8799 114.934 62.1399C114.899 61.6899 115.071 61.3101 115.463 61.0701L115.388 60.1001C114.54 60.4501 114.095 61.25 114.168 62.2C114.262 63.42 115.234 64.2799 116.504 64.1799C117.774 64.0799 118.596 63.0801 118.502 61.8601C118.429 60.9201 117.871 60.19 116.974 59.97L117.05 60.95Z" fill="url(#paint20_linear_67_553)"/>
<path d="M116.202 52.55L116.576 54.1201L115.479 54.3799L115.147 52.99L114.49 53.1399L114.822 54.54L113.784 54.78L113.41 53.21L112.734 53.3701L113.306 55.78L117.45 54.79L116.878 52.3899L116.202 52.55Z" fill="url(#paint21_linear_67_553)"/>
<path d="M16.249 38.73C15.756 39.64 15.721 40.6099 16.068 41.3899L15.192 40.9099L14.22 42.6899L21.254 46.53L22.226 44.75L18.34 42.6299C17.21 42.0099 16.941 41.0601 17.468 40.0901C17.982 39.1501 18.931 38.86 20.061 39.48L23.946 41.6101L24.918 39.8301L20.792 37.5701C20.124 37.2101 19.485 37.04 18.896 37.04C17.773 37.04 16.836 37.66 16.249 38.73Z" fill="url(#paint22_linear_67_553)"/>
<path d="M25.5231 26.5C24.6741 27.37 24.4201 28.44 24.6051 29.3L21.8401 26.6101L20.425 28.05L28.0891 35.53L29.5031 34.0801L28.6861 33.29C29.5261 33.42 30.5671 33.18 31.4471 32.28C32.8821 30.81 32.8131 28.5 31.0211 26.75C30.0941 25.84 29.0391 25.4199 28.0381 25.4199C27.1031 25.4199 26.2161 25.79 25.5231 26.5ZM26.6351 31.28C25.5481 30.22 25.6651 28.8999 26.4231 28.1299C27.1911 27.3399 28.488 27.17 29.576 28.23C30.6641 29.29 30.5671 30.6299 29.7991 31.4199C29.4181 31.8099 28.8971 32.04 28.3341 32.04C27.7761 32.04 27.1771 31.81 26.6351 31.28Z" fill="url(#paint23_linear_67_553)"/>
<path d="M38.596 16.9199L40.809 20.74C41.454 21.85 41.201 22.8001 40.249 23.3501C39.323 23.8901 38.36 23.64 37.715 22.53L35.503 18.71L33.749 19.72L36.106 23.79C37.209 25.7 38.983 26.0699 40.599 25.1399C41.463 24.6399 42.01 23.82 42.107 22.98L42.615 23.8501L44.381 22.8301L40.362 15.8899L38.596 16.9199Z" fill="url(#paint24_linear_67_553)"/>
<path d="M51.658 11.8C50.663 12.05 49.93 12.69 49.595 13.48L49.346 12.51L47.384 13.02L49.384 20.78L51.346 20.28L50.241 15.99C49.92 14.74 50.433 13.8901 51.499 13.6201C52.536 13.3501 53.396 13.8501 53.717 15.0901L54.822 19.3799L56.784 18.8799L55.611 14.3201C55.157 12.5601 53.999 11.6699 52.597 11.6699C52.294 11.6699 51.979 11.71 51.658 11.8Z" fill="url(#paint25_linear_67_553)"/>
<path d="M67.989 11.48C67.454 10.71 66.4509 10.1999 65.3949 10.1799C63.3409 10.1399 61.6879 11.71 61.6369 14.21C61.5859 16.72 63.1729 18.41 65.2139 18.46C66.4719 18.48 67.3809 17.9199 67.8729 17.1899L67.85 18.3799L69.9039 18.4199L70.1199 7.70996L68.066 7.66992L67.989 11.48ZM65.7699 16.6899C64.6849 16.6599 63.6759 15.78 63.7059 14.26C63.7369 12.74 64.7809 11.95 65.8659 11.97C66.9799 11.99 67.975 12.8501 67.945 14.3701C67.914 15.8701 66.9119 16.6899 65.8149 16.6899C65.8009 16.6899 65.7849 16.6899 65.7699 16.6899Z" fill="url(#paint26_linear_67_553)"/>
<path d="M75.332 19.4399L77.301 19.9199L79.829 9.51001L77.86 9.04004L75.332 19.4399Z" fill="url(#paint27_linear_67_553)"/>
<path d="M94.184 16.04C93.836 16.61 94.009 17.32 94.625 17.7C95.23 18.07 95.959 17.9101 96.307 17.3401C96.654 16.7701 96.47 16.0499 95.866 15.6799C95.642 15.5399 95.406 15.48 95.179 15.48C94.778 15.48 94.406 15.68 94.184 16.04ZM89.061 24.8101L90.788 25.8701L94.978 19.04L93.25 17.98L89.061 24.8101Z" fill="url(#paint28_linear_67_553)"/>
<path d="M95.348 29.02L96.81 30.4199L99.877 27.23C100.769 26.3 101.762 26.29 102.556 27.05C103.328 27.79 103.358 28.79 102.466 29.71L99.399 32.9099L100.86 34.3101L104.118 30.9199C105.652 29.3199 105.534 27.52 104.187 26.23C103.446 25.52 102.519 25.2301 101.672 25.3601L102.364 24.6399L100.902 23.24L95.348 29.02Z" fill="url(#paint29_linear_67_553)"/>
<path d="M107.316 36.01C105.162 37.32 104.628 39.57 105.827 41.55C106.861 43.26 108.524 43.8201 110.209 43.3101L109.078 41.4399C108.332 41.6099 107.74 41.3599 107.305 40.6399C106.721 39.6699 107.05 38.59 108.387 37.78C109.724 36.98 110.844 37.1799 111.429 38.1399C111.863 38.8599 111.769 39.5401 111.307 40.0901L112.438 41.96C113.748 40.66 113.943 38.97 112.91 37.26C112.147 36 110.963 35.3101 109.648 35.3101C108.895 35.3101 108.1 35.54 107.316 36.01Z" fill="url(#paint30_linear_67_553)"/>
<path d="M39.271 39.3999V83.8301L65 101.69L90.729 83.8301V39.3999H39.271ZM41.399 82.72V41.49H88.601V82.72L65 99.1001L41.399 82.72Z" fill="url(#paint31_linear_67_553)"/>
<path d="M51.785 51.4299C48.87 51.4299 46.497 53.8 46.497 56.72C46.497 59.37 48.469 61.5699 51.025 61.9399L44.5 75.79H58.02L51.518 61.99C51.607 62 51.695 62.01 51.785 62.01C54.701 62.01 57.073 59.63 57.073 56.72H54.903C54.903 58.44 53.504 59.8301 51.785 59.8301C50.066 59.8301 48.668 58.44 48.668 56.72C48.668 55 50.066 53.6001 51.785 53.6001H63.915V91.3301H66.085V53.6001H78.215C79.934 53.6001 81.332 55 81.332 56.72C81.332 58.44 79.934 59.8301 78.215 59.8301C76.496 59.8301 75.097 58.44 75.097 56.72H72.926C72.926 59.63 75.299 62.01 78.215 62.01C78.305 62.01 78.393 62 78.482 61.99L71.98 75.79H85.5L78.975 61.9399C81.531 61.5699 83.503 59.37 83.503 56.72C83.503 53.8 81.13 51.4299 78.215 51.4299H51.785ZM78.74 66.54L82.077 73.6201H75.403L78.74 66.54ZM51.26 66.54L54.597 73.6201H47.922L51.26 66.54Z" fill="url(#paint32_linear_67_553)"/>
<path d="M58.762 59.79V83.5601L60.933 84.6399V59.79H58.762Z" fill="url(#paint33_linear_67_553)"/>
<path d="M69.067 59.79V84.6399L71.238 83.5601V59.79H69.067Z" fill="url(#paint34_linear_67_553)"/>
<path d="M56.938 49.26H73.062V47.0901H56.938V49.26Z" fill="url(#paint35_linear_67_553)"/>
<path d="M0.13501 65C0.13501 100.77 29.233 129.86 65 129.86C100.767 129.86 129.865 100.77 129.865 65C129.865 29.23 100.767 0.129883 65 0.129883C29.233 0.129883 0.13501 29.23 0.13501 65ZM2.306 65C2.306 30.43 30.43 2.31006 65 2.31006C99.57 2.31006 127.694 30.43 127.694 65C127.694 99.57 99.57 127.69 65 127.69C30.43 127.69 2.306 99.57 2.306 65Z" fill="url(#paint36_linear_67_553)"/>
<defs>
<linearGradient id="paint0_linear_67_553" x1="64.448" y1="-18.3516" x2="-12.4211" y2="97.5894" gradientUnits="userSpaceOnUse">
<stop stop-color="#DF9B60"/>
<stop offset="1" stop-color="#B26F41"/>
</linearGradient>
<linearGradient id="paint1_linear_67_553" x1="67.77" y1="-16.152" x2="-9.09971" y2="99.7891" gradientUnits="userSpaceOnUse">
<stop stop-color="#DF9B60"/>
<stop offset="1" stop-color="#B26F41"/>
</linearGradient>
<linearGradient id="paint2_linear_67_553" x1="71.4442" y1="-13.7126" x2="-5.42703" y2="102.229" gradientUnits="userSpaceOnUse">
<stop stop-color="#DF9B60"/>
<stop offset="1" stop-color="#B26F41"/>
</linearGradient>
<linearGradient id="paint3_linear_67_553" x1="76.837" y1="-10.1397" x2="-0.030508" y2="105.8" gradientUnits="userSpaceOnUse">
<stop stop-color="#DF9B60"/>
<stop offset="1" stop-color="#B26F41"/>
</linearGradient>
<linearGradient id="paint4_linear_67_553" x1="81.1398" y1="-7.27272" x2="4.28089" y2="108.654" gradientUnits="userSpaceOnUse">
<stop stop-color="#DF9B60"/>
<stop offset="1" stop-color="#B26F41"/>
</linearGradient>
<linearGradient id="paint5_linear_67_553" x1="86.4211" y1="-3.78209" x2="9.55175" y2="112.159" gradientUnits="userSpaceOnUse">
<stop stop-color="#DF9B60"/>
<stop offset="1" stop-color="#B26F41"/>
</linearGradient>
<linearGradient id="paint6_linear_67_553" x1="93.2701" y1="0.762941" x2="16.4062" y2="116.702" gradientUnits="userSpaceOnUse">
<stop stop-color="#DF9B60"/>
<stop offset="1" stop-color="#B26F41"/>
</linearGradient>
<linearGradient id="paint7_linear_67_553" x1="104.98" y1="8.52095" x2="28.1147" y2="124.461" gradientUnits="userSpaceOnUse">
<stop stop-color="#DF9B60"/>
<stop offset="1" stop-color="#B26F41"/>
</linearGradient>
<linearGradient id="paint8_linear_67_553" x1="112.062" y1="13.2213" x2="35.1965" y2="129.161" gradientUnits="userSpaceOnUse">
<stop stop-color="#DF9B60"/>
<stop offset="1" stop-color="#B26F41"/>
</linearGradient>
<linearGradient id="paint9_linear_67_553" x1="119.089" y1="17.8787" x2="42.221" y2="133.81" gradientUnits="userSpaceOnUse">
<stop stop-color="#DF9B60"/>
<stop offset="1" stop-color="#B26F41"/>
</linearGradient>
<linearGradient id="paint10_linear_67_553" x1="125.152" y1="21.8919" x2="48.2855" y2="137.83" gradientUnits="userSpaceOnUse">
<stop stop-color="#DF9B60"/>
<stop offset="1" stop-color="#B26F41"/>
</linearGradient>
<linearGradient id="paint11_linear_67_553" x1="130.319" y1="25.3182" x2="53.4499" y2="141.259" gradientUnits="userSpaceOnUse">
<stop stop-color="#DF9B60"/>
<stop offset="1" stop-color="#B26F41"/>
</linearGradient>
<linearGradient id="paint12_linear_67_553" x1="135.097" y1="28.4895" x2="58.2282" y2="144.43" gradientUnits="userSpaceOnUse">
<stop stop-color="#DF9B60"/>
<stop offset="1" stop-color="#B26F41"/>
</linearGradient>
<linearGradient id="paint13_linear_67_553" x1="141.292" y1="32.5969" x2="64.4208" y2="148.539" gradientUnits="userSpaceOnUse">
<stop stop-color="#DF9B60"/>
<stop offset="1" stop-color="#B26F41"/>
</linearGradient>
<linearGradient id="paint14_linear_67_553" x1="144.266" y1="34.5706" x2="67.3991" y2="150.51" gradientUnits="userSpaceOnUse">
<stop stop-color="#DF9B60"/>
<stop offset="1" stop-color="#B26F41"/>
</linearGradient>
<linearGradient id="paint15_linear_67_553" x1="146.573" y1="36.0976" x2="69.7016" y2="152.039" gradientUnits="userSpaceOnUse">
<stop stop-color="#DF9B60"/>
<stop offset="1" stop-color="#B26F41"/>
</linearGradient>
<linearGradient id="paint16_linear_67_553" x1="146.451" y1="36.0195" x2="69.5822" y2="151.96" gradientUnits="userSpaceOnUse">
<stop stop-color="#DF9B60"/>
<stop offset="1" stop-color="#B26F41"/>
</linearGradient>
<linearGradient id="paint17_linear_67_553" x1="145.38" y1="35.3096" x2="68.5109" y2="151.25" gradientUnits="userSpaceOnUse">
<stop stop-color="#DF9B60"/>
<stop offset="1" stop-color="#B26F41"/>
</linearGradient>
<linearGradient id="paint18_linear_67_553" x1="143.194" y1="33.8606" x2="66.3285" y2="149.8" gradientUnits="userSpaceOnUse">
<stop stop-color="#DF9B60"/>
<stop offset="1" stop-color="#B26F41"/>
</linearGradient>
<linearGradient id="paint19_linear_67_553" x1="140.908" y1="32.3365" x2="64.0307" y2="148.281" gradientUnits="userSpaceOnUse">
<stop stop-color="#DF9B60"/>
<stop offset="1" stop-color="#B26F41"/>
</linearGradient>
<linearGradient id="paint20_linear_67_553" x1="137.509" y1="30.0902" x2="60.6432" y2="146.03" gradientUnits="userSpaceOnUse">
<stop stop-color="#DF9B60"/>
<stop offset="1" stop-color="#B26F41"/>
</linearGradient>
<linearGradient id="paint21_linear_67_553" x1="132.987" y1="27.0889" x2="56.1157" y2="143.031" gradientUnits="userSpaceOnUse">
<stop stop-color="#DF9B60"/>
<stop offset="1" stop-color="#B26F41"/>
</linearGradient>
<linearGradient id="paint22_linear_67_553" x1="14.717" y1="5.48007" x2="23.51" y2="70.32" gradientUnits="userSpaceOnUse">
<stop stop-color="#F7D190"/>
<stop offset="0.994413" stop-color="#9F8256"/>
<stop offset="1" stop-color="#9F8256"/>
</linearGradient>
<linearGradient id="paint23_linear_67_553" x1="23.1171" y1="4.3397" x2="31.9102" y2="69.1804" gradientUnits="userSpaceOnUse">
<stop stop-color="#F7D190"/>
<stop offset="0.994413" stop-color="#9F8256"/>
<stop offset="1" stop-color="#9F8256"/>
</linearGradient>
<linearGradient id="paint24_linear_67_553" x1="36.522" y1="2.51984" x2="45.3141" y2="67.3701" gradientUnits="userSpaceOnUse">
<stop stop-color="#F7D190"/>
<stop offset="0.994413" stop-color="#9F8256"/>
<stop offset="1" stop-color="#9F8256"/>
</linearGradient>
<linearGradient id="paint25_linear_67_553" x1="50.016" y1="0.689792" x2="58.8082" y2="65.5405" gradientUnits="userSpaceOnUse">
<stop stop-color="#F7D190"/>
<stop offset="0.994413" stop-color="#9F8256"/>
<stop offset="1" stop-color="#9F8256"/>
</linearGradient>
<linearGradient id="paint26_linear_67_553" x1="64.1919" y1="-1.23011" x2="72.984" y2="63.6101" gradientUnits="userSpaceOnUse">
<stop stop-color="#F7D190"/>
<stop offset="0.994413" stop-color="#9F8256"/>
<stop offset="1" stop-color="#9F8256"/>
</linearGradient>
<linearGradient id="paint27_linear_67_553" x1="75.247" y1="-2.72983" x2="84.0398" y2="62.1095" gradientUnits="userSpaceOnUse">
<stop stop-color="#F7D190"/>
<stop offset="0.994413" stop-color="#9F8256"/>
<stop offset="1" stop-color="#9F8256"/>
</linearGradient>
<linearGradient id="paint28_linear_67_553" x1="89.331" y1="-4.64028" x2="98.1233" y2="60.2105" gradientUnits="userSpaceOnUse">
<stop stop-color="#F7D190"/>
<stop offset="0.994413" stop-color="#9F8256"/>
<stop offset="1" stop-color="#9F8256"/>
</linearGradient>
<linearGradient id="paint29_linear_67_553" x1="95.659" y1="-5.50019" x2="104.452" y2="59.3502" gradientUnits="userSpaceOnUse">
<stop stop-color="#F7D190"/>
<stop offset="0.994413" stop-color="#9F8256"/>
<stop offset="1" stop-color="#9F8256"/>
</linearGradient>
<linearGradient id="paint30_linear_67_553" x1="103.156" y1="-6.50993" x2="111.948" y2="58.3301" gradientUnits="userSpaceOnUse">
<stop stop-color="#F7D190"/>
<stop offset="0.994413" stop-color="#9F8256"/>
<stop offset="1" stop-color="#9F8256"/>
</linearGradient>
<linearGradient id="paint31_linear_67_553" x1="104.677" y1="1.76988" x2="22.1249" y2="126.29" gradientUnits="userSpaceOnUse">
<stop stop-color="#DF9B60"/>
<stop offset="1" stop-color="#B26F41"/>
</linearGradient>
<linearGradient id="paint32_linear_67_553" x1="104.124" y1="7.94977" x2="27.2566" y2="123.89" gradientUnits="userSpaceOnUse">
<stop stop-color="#DF9B60"/>
<stop offset="1" stop-color="#B26F41"/>
</linearGradient>
<linearGradient id="paint33_linear_67_553" x1="101.433" y1="9.49033" x2="27.7402" y2="120.641" gradientUnits="userSpaceOnUse">
<stop stop-color="#DF9B60"/>
<stop offset="1" stop-color="#B26F41"/>
</linearGradient>
<linearGradient id="paint34_linear_67_553" x1="109.872" y1="11.7603" x2="33.0053" y2="127.701" gradientUnits="userSpaceOnUse">
<stop stop-color="#DF9B60"/>
<stop offset="1" stop-color="#B26F41"/>
</linearGradient>
<linearGradient id="paint35_linear_67_553" x1="95.6361" y1="1.96171" x2="18.7729" y2="117.9" gradientUnits="userSpaceOnUse">
<stop stop-color="#DF9B60"/>
<stop offset="1" stop-color="#B26F41"/>
</linearGradient>
<linearGradient id="paint36_linear_67_553" x1="103.219" y1="7.3499" x2="26.3518" y2="123.29" gradientUnits="userSpaceOnUse">
<stop stop-color="#DF9B60"/>
<stop offset="1" stop-color="#B26F41"/>
</linearGradient>
</defs>
</svg>
